<svg width="512" height="512" viewBox="0 0 512 512" fill="none" xmlns="http://www.w3.org/2000/svg">
<path d="M0 114.204C0 114.204 9.80519 63.712 161.373 33.3286C312.94 2.9452 340.345 49.269 340.345 49.269C340.345 49.269 342.393 57.42 344.975 71.2079L345.03 71.5011C343.811 71.3388 342.561 71.1747 341.277 71.0088C256.834 60.092 203.713 66.3842 169.921 78.0166C152.858 83.8905 140.636 91.1624 131.987 98.2987C127.684 101.849 124.367 105.284 121.842 108.352C120.583 109.882 119.533 111.305 118.665 112.589C118.231 113.231 117.843 113.835 117.498 114.399C117.325 114.681 117.164 114.953 117.012 115.213C116.969 115.287 116.927 115.36 116.885 115.432C116.854 115.487 116.823 115.542 116.792 115.596C116.757 115.658 116.722 115.72 116.688 115.781L116.637 115.871L116.588 115.961L113.789 121.026L112.647 126.727L112.641 126.753L112.617 126.877L112.577 127.078L112.564 127.145C112.522 127.363 112.464 127.659 112.394 128.03C112.253 128.774 112.058 129.82 111.82 131.15C111.344 133.809 110.695 137.608 109.955 142.393C108.477 151.952 106.63 165.504 105.089 181.808C104.675 186.187 104.282 190.782 103.923 195.567C93.1603 203.123 87.1629 216.713 89.7054 230.7C91.2728 239.322 95.8149 246.606 102.043 251.647C102.212 268.523 103.095 286.26 105.044 304.234C107.203 324.16 110.73 344.951 116.298 365.506C20.8103 296.644 0 114.204 0 114.204Z" fill="#536CB5" fill-opacity="0.5"/>
<path fill-rule="evenodd" clip-rule="evenodd" d="M161.757 386.864L161.759 386.864C144.791 345.805 139.004 298.143 138.246 255.333C137.851 233 138.824 211.987 140.292 193.921C143.202 158.119 148.056 133.889 148.056 133.889C148.056 133.889 148.278 133.489 148.805 132.777C148.277 133.489 148.055 133.891 148.055 133.891C148.055 133.891 143.201 158.119 140.291 193.92C138.822 211.987 137.849 233 138.245 255.334C139.003 298.143 144.789 345.804 161.757 386.864ZM351.024 109.347C348.402 108.954 345.702 108.567 342.922 108.185C340.929 107.911 338.912 107.641 336.873 107.378C281.709 100.246 242.241 101.008 214.169 105.128C242.241 101.009 281.709 100.247 336.871 107.379C338.929 107.645 340.946 107.914 342.922 108.185C345.667 108.563 348.367 108.951 351.024 109.349L351.024 109.347Z" fill="#536CB5"/>
<path fill-rule="evenodd" clip-rule="evenodd" d="M342.922 108.185C340.946 107.914 338.929 107.645 336.871 107.379C281.709 100.247 242.241 101.009 214.169 105.128C210.555 105.658 207.13 106.244 203.884 106.876C200.428 107.548 197.176 108.274 194.116 109.039C190.794 109.87 187.7 110.749 184.818 111.66C181.623 112.671 178.691 113.721 176 114.792C174.586 115.354 173.239 115.922 171.957 116.493C170.673 117.064 169.454 117.637 168.296 118.21C167.168 118.768 166.098 119.326 165.083 119.88C163.662 120.657 162.351 121.428 161.141 122.185C160.329 122.694 159.563 123.196 158.841 123.69C158.114 124.187 157.432 124.675 156.791 125.152C156.15 125.63 155.552 126.098 154.993 126.551C154.339 127.083 153.74 127.596 153.193 128.088C152.828 128.415 152.486 128.733 152.166 129.04C151.862 129.331 151.578 129.613 151.312 129.883C151.089 130.111 150.88 130.331 150.683 130.542C150.194 131.068 149.783 131.544 149.443 131.96C149.354 132.069 149.269 132.175 149.19 132.276C149.116 132.37 149.045 132.46 148.979 132.546C148.918 132.626 148.86 132.703 148.805 132.777C148.278 133.489 148.056 133.889 148.056 133.889C148.056 133.889 143.202 158.119 140.292 193.921C138.824 211.987 137.851 233 138.246 255.333C139.004 298.143 144.791 345.805 161.759 386.864C174.52 417.743 193.604 444.888 221.629 463.427C239.462 475.225 260.916 483.537 286.664 487.11C288.406 487.352 290.136 487.568 291.852 487.757C490.741 509.741 512 184.394 512 184.394C512 184.394 504.111 149.263 420.065 124.21C402.897 119.092 382.55 114.395 358.444 110.503C356.01 110.11 353.536 109.726 351.024 109.349C348.367 108.951 345.667 108.563 342.922 108.185ZM230.521 323.652C250.264 326.392 268.436 312.217 271.111 291.991C273.785 271.765 259.948 253.148 240.205 250.408C220.462 247.668 202.289 261.843 199.615 282.069C196.941 302.295 210.778 320.913 230.521 323.652ZM401.973 281.719L392.101 260.844C390.027 256.458 384.145 255.641 381.006 259.304L366.069 276.736C365.021 277.959 363.564 278.757 361.968 278.983L341.08 281.933L339.306 282.183C334.633 282.843 332.135 288.032 334.515 292.135L336.284 295.183L346.312 312.471C347.106 313.84 347.392 315.442 347.121 316.996L343.077 340.135C342.252 344.859 346.523 348.918 351.184 347.84L373.225 342.742C374.818 342.374 376.495 342.606 377.935 343.396L397.428 354.082L397.858 354.317C402.071 356.627 407.243 353.878 407.674 349.099L409.784 325.692C409.926 324.12 410.618 322.653 411.739 321.55L422.69 310.773L428.391 305.162C431.751 301.856 430.69 296.173 426.357 294.264L422.195 292.429L419.107 291.068L405.343 285.002C403.863 284.35 402.666 283.183 401.973 281.719Z" fill="#536CB5"/>
</svg>
